<?xml version="1.0" encoding="UTF-8" standalone="no"?>
<!DOCTYPE svg PUBLIC "-//W3C//DTD SVG 1.1//EN"
 "http://www.w3.org/Graphics/SVG/1.1/DTD/svg11.dtd">
<!-- Generated by graphviz version 2.26.3 (20100126.1600)
 -->
<!-- Title: _anonymous_0 Pages: 1 -->
<svg width="1546pt" height="344pt"
 viewBox="0.00 0.00 1546.12 344.18" xmlns="http://www.w3.org/2000/svg" xmlns:xlink="http://www.w3.org/1999/xlink">
<g id="graph1" class="graph" transform="scale(1 1) rotate(0) translate(4 340.18)">
<title>_anonymous_0</title>
<polygon fill="white" stroke="white" points="-4,5 -4,-340.18 1543.12,-340.18 1543.12,5 -4,5"/>
<!-- 70 -->
<g id="node1" class="node"><title>70</title>
<ellipse fill="none" stroke="white" cx="723.935" cy="-168.09" rx="0" ry="0.5"/>
</g>
<!-- 71 -->
<g id="node2" class="node"><title>71</title>
<ellipse fill="none" stroke="white" cx="877.273" cy="-168.09" rx="0" ry="0.5"/>
</g>
<!-- 70&#45;&#45;71 -->
<g id="edge98" class="edge"><title>70&#45;&#45;71</title>
<path fill="none" stroke="black" stroke-width="2" d="M724.619,-168.09C733.803,-168.09 832.966,-168.09 866.365,-168.09"/>
<polygon fill="black" stroke="black" points="866.367,-171.59 876.367,-168.09 866.367,-164.59 866.367,-171.59"/>
</g>
<!-- 34 -->
<g id="node3" class="node"><title>34</title>
<ellipse fill="none" stroke="black" cx="75" cy="-86.0978" rx="74.0934" ry="18"/>
<text text-anchor="start" x="26.5" y="-83.3311" font-family="Times Roman,serif" font-size="14.00">{Ribo&#45;ADP}</text>
<text text-anchor="start" x="110.5" y="-82.8311" font-family="Times Roman,serif" font-size="9.00">11</text>
</g>
<!-- 44 -->
<g id="node4" class="node"><title>44</title>
<ellipse fill="none" stroke="black" cx="589.785" cy="-317.18" rx="26.1448" ry="18"/>
<text text-anchor="start" x="577.785" y="-314.413" font-family="Times Roman,serif" font-size="14.00">H</text>
<text text-anchor="start" x="588.785" y="-313.913" font-family="Times Roman,serif" font-size="9.00">21</text>
</g>
<!-- 30 -->
<g id="node5" class="node"><title>30</title>
<ellipse fill="none" stroke="black" cx="344.635" cy="-40.412" rx="61.0946" ry="18"/>
<text text-anchor="start" x="306.135" y="-37.6453" font-family="Times Roman,serif" font-size="14.00">{CONH2}</text>
<text text-anchor="start" x="376.135" y="-37.1453" font-family="Times Roman,serif" font-size="9.00">7</text>
</g>
<!-- 40 -->
<g id="node6" class="node"><title>40</title>
<ellipse fill="none" stroke="black" cx="600.205" cy="-248.79" rx="25.9977" ry="18"/>
<text text-anchor="start" x="588.705" y="-246.023" font-family="Times Roman,serif" font-size="14.00">C</text>
<text text-anchor="start" x="598.705" y="-245.523" font-family="Times Roman,serif" font-size="9.00">17</text>
</g>
<!-- 40&#45;&#45;44 -->
<g id="edge20" class="edge"><title>40&#45;&#45;44</title>
<path fill="none" stroke="black" stroke-width="2" d="M597.467,-266.759C595.948,-276.732 594.063,-289.102 592.541,-299.094"/>
</g>
<!-- 41 -->
<g id="node10" class="node"><title>41</title>
<ellipse fill="none" stroke="black" cx="644.715" cy="-294.95" rx="26.1448" ry="18"/>
<text text-anchor="start" x="632.715" y="-292.183" font-family="Times Roman,serif" font-size="14.00">H</text>
<text text-anchor="start" x="643.715" y="-291.683" font-family="Times Roman,serif" font-size="9.00">18</text>
</g>
<!-- 40&#45;&#45;41 -->
<g id="edge82" class="edge"><title>40&#45;&#45;41</title>
<path fill="none" stroke="black" stroke-width="2" d="M614.779,-263.905C619.749,-269.058 625.3,-274.815 630.26,-279.959"/>
</g>
<!-- 43 -->
<g id="node18" class="node"><title>43</title>
<ellipse fill="none" stroke="black" cx="663.935" cy="-235.1" rx="26.1448" ry="18"/>
<text text-anchor="start" x="651.935" y="-232.333" font-family="Times Roman,serif" font-size="14.00">H</text>
<text text-anchor="start" x="662.935" y="-231.833" font-family="Times Roman,serif" font-size="9.00">20</text>
</g>
<!-- 40&#45;&#45;43 -->
<g id="edge2" class="edge"><title>40&#45;&#45;43</title>
<path fill="none" stroke="black" stroke-width="2" d="M625.393,-243.379C629.846,-242.423 634.482,-241.427 638.93,-240.471"/>
</g>
<!-- 25 -->
<g id="node7" class="node"><title>25</title>
<ellipse fill="none" stroke="red" cx="289.895" cy="-207.07" rx="18" ry="18"/>
<text text-anchor="start" x="283.395" y="-205.237" font-family="Times Roman,serif" font-size="10.00" fill="red">c</text>
<text text-anchor="start" x="289.395" y="-205.137" font-family="Times Roman,serif" font-size="9.00" fill="red">2</text>
</g>
<!-- 26 -->
<g id="node15" class="node"><title>26</title>
<ellipse fill="none" stroke="red" cx="350.315" cy="-167.35" rx="18" ry="18"/>
<text text-anchor="start" x="343.815" y="-165.517" font-family="Times Roman,serif" font-size="10.00" fill="red">c</text>
<text text-anchor="start" x="349.815" y="-165.417" font-family="Times Roman,serif" font-size="9.00" fill="red">3</text>
</g>
<!-- 25&#45;&#45;26 -->
<g id="edge18" class="edge"><title>25&#45;&#45;26</title>
<path fill="none" stroke="red" stroke-dasharray="5,2" d="M304.592,-196.211C313.682,-190.236 325.189,-182.671 334.314,-176.672"/>
<path fill="none" stroke="red" stroke-dasharray="5,2" d="M305.691,-197.883C314.78,-191.907 326.287,-184.343 335.413,-178.344"/>
</g>
<!-- 31 -->
<g id="node21" class="node"><title>31</title>
<ellipse fill="none" stroke="black" cx="276.685" cy="-273.99" rx="22.2425" ry="18"/>
<text text-anchor="start" x="267.685" y="-271.223" font-family="Times Roman,serif" font-size="14.00">H</text>
<text text-anchor="start" x="278.685" y="-270.723" font-family="Times Roman,serif" font-size="9.00">8</text>
</g>
<!-- 25&#45;&#45;31 -->
<g id="edge78" class="edge"><title>25&#45;&#45;31</title>
<path fill="none" stroke="black" stroke-width="2" d="M286.355,-225.003C284.46,-234.605 282.132,-246.398 280.235,-256.007"/>
</g>
<!-- 45 -->
<g id="node8" class="node"><title>45</title>
<ellipse fill="none" stroke="red" cx="532.945" cy="-246.55" rx="26.1448" ry="18"/>
<text text-anchor="start" x="520.945" y="-243.783" font-family="Times Roman,serif" font-size="14.00" fill="red">H</text>
<text text-anchor="start" x="531.945" y="-243.283" font-family="Times Roman,serif" font-size="9.00" fill="red">22</text>
</g>
<!-- 24 -->
<g id="node9" class="node"><title>24</title>
<ellipse fill="none" stroke="red" cx="225.085" cy="-186.74" rx="18" ry="18"/>
<text text-anchor="start" x="218.585" y="-184.907" font-family="Times Roman,serif" font-size="10.00" fill="red">c</text>
<text text-anchor="start" x="224.585" y="-184.807" font-family="Times Roman,serif" font-size="9.00" fill="red">1</text>
</g>
<!-- 24&#45;&#45;25 -->
<g id="edge28" class="edge"><title>24&#45;&#45;25</title>
<path fill="none" stroke="red" stroke-dasharray="5,2" d="M242.752,-191.234C252.051,-194.151 263.472,-197.734 272.779,-200.653"/>
<path fill="none" stroke="red" stroke-dasharray="5,2" d="M242.154,-193.142C251.452,-196.059 262.874,-199.642 272.18,-202.561"/>
</g>
<!-- 29 -->
<g id="node14" class="node"><title>29</title>
<ellipse fill="none" stroke="black" cx="174.875" cy="-228.62" rx="22.2425" ry="18"/>
<text text-anchor="start" x="165.875" y="-225.853" font-family="Times Roman,serif" font-size="14.00">H</text>
<text text-anchor="start" x="176.875" y="-225.353" font-family="Times Roman,serif" font-size="9.00">6</text>
</g>
<!-- 24&#45;&#45;29 -->
<g id="edge94" class="edge"><title>24&#45;&#45;29</title>
<path fill="none" stroke="black" stroke-width="2" d="M211.099,-198.406C204.715,-203.731 197.129,-210.058 190.553,-215.543"/>
</g>
<!-- 23 -->
<g id="node11" class="node"><title>23</title>
<ellipse fill="none" stroke="red" cx="201.754" cy="-122.33" rx="22.9579" ry="18"/>
<text text-anchor="start" x="190.754" y="-120.497" font-family="Times Roman,serif" font-size="10.00" fill="red">n+</text>
<text text-anchor="start" x="205.754" y="-120.397" font-family="Times Roman,serif" font-size="9.00" fill="red">0</text>
</g>
<!-- 23&#45;&#45;34 -->
<g id="edge62" class="edge"><title>23&#45;&#45;34</title>
<path fill="none" stroke="black" stroke-width="2" d="M179.964,-116.101C164.321,-111.63 142.626,-105.429 123.018,-99.8237"/>
</g>
<!-- 23&#45;&#45;24 -->
<g id="edge88" class="edge"><title>23&#45;&#45;24</title>
<path fill="none" stroke="red" stroke-dasharray="5,2" d="M209.07,-139.59C212.416,-148.827 216.498,-160.098 219.819,-169.266"/>
<path fill="none" stroke="red" stroke-dasharray="5,2" d="M207.189,-140.271C210.535,-149.508 214.618,-160.779 217.939,-169.947"/>
</g>
<!-- 28 -->
<g id="node25" class="node"><title>28</title>
<ellipse fill="none" stroke="red" cx="257.735" cy="-81.557" rx="18" ry="18"/>
<text text-anchor="start" x="251.235" y="-79.7237" font-family="Times Roman,serif" font-size="10.00" fill="red">c</text>
<text text-anchor="start" x="257.235" y="-79.6237" font-family="Times Roman,serif" font-size="9.00" fill="red">5</text>
</g>
<!-- 23&#45;&#45;28 -->
<g id="edge48" class="edge"><title>23&#45;&#45;28</title>
<path fill="none" stroke="red" stroke-dasharray="5,2" d="M218.266,-109.067C225.983,-103.446 235.008,-96.8727 242.42,-91.4746"/>
<path fill="none" stroke="red" stroke-dasharray="5,2" d="M219.443,-110.684C227.16,-105.063 236.186,-98.4894 243.597,-93.0913"/>
</g>
<!-- 39 -->
<g id="node12" class="node"><title>39</title>
<ellipse fill="none" stroke="black" cx="484.825" cy="-178.59" rx="26.8013" ry="18"/>
<text text-anchor="start" x="472.325" y="-175.823" font-family="Times Roman,serif" font-size="14.00" fill="red">O</text>
<text text-anchor="start" x="484.325" y="-175.323" font-family="Times Roman,serif" font-size="9.00" fill="red">16</text>
</g>
<!-- 42 -->
<g id="node23" class="node"><title>42</title>
<ellipse fill="none" stroke="black" cx="419.465" cy="-170.05" rx="26.1448" ry="18"/>
<text text-anchor="start" x="407.465" y="-167.283" font-family="Times Roman,serif" font-size="14.00" fill="red">H</text>
<text text-anchor="start" x="418.465" y="-166.783" font-family="Times Roman,serif" font-size="9.00" fill="red">19</text>
</g>
<!-- 39&#45;&#45;42 -->
<g id="edge54" class="edge"><title>39&#45;&#45;42</title>
<path fill="none" stroke="red" stroke-width="2" d="M458.241,-175.116C454,-174.562 449.617,-173.99 445.391,-173.437"/>
</g>
<!-- 36 -->
<g id="node13" class="node"><title>36</title>
<ellipse fill="none" stroke="black" cx="601.905" cy="-70.671" rx="26.8013" ry="18"/>
<text text-anchor="start" x="589.405" y="-67.9043" font-family="Times Roman,serif" font-size="14.00">O</text>
<text text-anchor="start" x="601.405" y="-67.4043" font-family="Times Roman,serif" font-size="9.00">13</text>
</g>
<!-- 32 -->
<g id="node16" class="node"><title>32</title>
<ellipse fill="none" stroke="black" cx="357.995" cy="-227.53" rx="22.2425" ry="18"/>
<text text-anchor="start" x="348.995" y="-224.763" font-family="Times Roman,serif" font-size="14.00">H</text>
<text text-anchor="start" x="359.995" y="-224.263" font-family="Times Roman,serif" font-size="9.00">9</text>
</g>
<!-- 26&#45;&#45;32 -->
<g id="edge12" class="edge"><title>26&#45;&#45;32</title>
<path fill="none" stroke="black" stroke-width="2" d="M352.619,-185.406C353.591,-193.023 354.721,-201.871 355.692,-209.487"/>
</g>
<!-- 27 -->
<g id="node22" class="node"><title>27</title>
<ellipse fill="none" stroke="red" cx="323.425" cy="-102.36" rx="18" ry="18"/>
<text text-anchor="start" x="316.925" y="-100.527" font-family="Times Roman,serif" font-size="10.00" fill="red">c</text>
<text text-anchor="start" x="322.925" y="-100.427" font-family="Times Roman,serif" font-size="9.00" fill="red">4</text>
</g>
<!-- 26&#45;&#45;27 -->
<g id="edge40" class="edge"><title>26&#45;&#45;27</title>
<path fill="none" stroke="red" stroke-dasharray="5,2" d="M342.466,-150.996C338.483,-141.368 333.491,-129.304 329.496,-119.648"/>
<path fill="none" stroke="red" stroke-dasharray="5,2" d="M344.314,-150.231C340.331,-140.603 335.339,-128.54 331.344,-118.883"/>
</g>
<!-- 35 -->
<g id="node17" class="node"><title>35</title>
<ellipse fill="none" stroke="black" cx="591.015" cy="-134.59" rx="25.9977" ry="18"/>
<text text-anchor="start" x="579.515" y="-131.823" font-family="Times Roman,serif" font-size="14.00">C</text>
<text text-anchor="start" x="589.515" y="-131.323" font-family="Times Roman,serif" font-size="9.00">12</text>
</g>
<!-- 35&#45;&#45;36 -->
<g id="edge30" class="edge"><title>35&#45;&#45;36</title>
<path fill="none" stroke="black" stroke-width="2" d="M600.174,-117.478C602.523,-108.611 604.332,-97.7876 604.961,-88.7801"/>
</g>
<!-- 35&#45;&#45;36 -->
<g id="edge34" class="edge"><title>35&#45;&#45;36</title>
<path fill="none" stroke="black" stroke-width="2" d="M587.962,-116.444C588.595,-107.419 590.411,-96.5778 592.765,-87.7094"/>
</g>
<!-- 37 -->
<g id="node19" class="node"><title>37</title>
<ellipse fill="none" stroke="black" cx="652.775" cy="-113.77" rx="31.1972" ry="18"/>
<text text-anchor="start" x="637.275" y="-111.003" font-family="Times Roman,serif" font-size="14.00">O&#45;</text>
<text text-anchor="start" x="655.275" y="-110.503" font-family="Times Roman,serif" font-size="9.00">14</text>
</g>
<!-- 35&#45;&#45;37 -->
<g id="edge50" class="edge"><title>35&#45;&#45;37</title>
<path fill="none" stroke="black" stroke-width="2" d="M614.716,-126.6C618.39,-125.362 622.208,-124.075 625.944,-122.815"/>
</g>
<!-- 38 -->
<g id="node20" class="node"><title>38</title>
<ellipse fill="none" stroke="black" cx="553.325" cy="-192.74" rx="25.9977" ry="18"/>
<text text-anchor="start" x="541.825" y="-189.973" font-family="Times Roman,serif" font-size="14.00" fill="red">C</text>
<text text-anchor="start" x="551.825" y="-189.473" font-family="Times Roman,serif" font-size="9.00" fill="red">15</text>
</g>
<!-- 35&#45;&#45;38 -->
<g id="edge90" class="edge"><title>35&#45;&#45;38</title>
<path fill="none" stroke="black" stroke-width="2" d="M580.315,-151.098C575.266,-158.888 569.251,-168.168 564.182,-175.989"/>
</g>
<!-- 38&#45;&#45;40 -->
<g id="edge42" class="edge"><title>38&#45;&#45;40</title>
<path fill="none" stroke="black" stroke-width="2" d="M566.384,-208.353C572.778,-215.998 580.463,-225.186 586.891,-232.871"/>
</g>
<!-- 38&#45;&#45;45 -->
<g id="edge70" class="edge"><title>38&#45;&#45;45</title>
<path fill="none" stroke="red" stroke-width="2" d="M546.652,-210.359C544.377,-216.367 541.835,-223.079 539.564,-229.075"/>
</g>
<!-- 38&#45;&#45;39 -->
<g id="edge56" class="edge"><title>38&#45;&#45;39</title>
<path fill="none" stroke="black" stroke-width="2" d="M528.207,-187.551C522.556,-186.384 516.547,-185.143 510.859,-183.968"/>
</g>
<!-- 27&#45;&#45;30 -->
<g id="edge74" class="edge"><title>27&#45;&#45;30</title>
<path fill="none" stroke="black" stroke-width="2" d="M329.333,-85.104C332.177,-76.7983 335.585,-66.8434 338.463,-58.4392"/>
</g>
<!-- 27&#45;&#45;28 -->
<g id="edge10" class="edge"><title>27&#45;&#45;28</title>
<path fill="none" stroke="red" stroke-dasharray="5,2" d="M305.864,-97.8476C296.285,-94.814 284.403,-91.0511 274.805,-88.0118"/>
<path fill="none" stroke="red" stroke-dasharray="5,2" d="M306.468,-95.9409C296.888,-92.9073 285.006,-89.1445 275.409,-86.1051"/>
</g>
<!-- 33 -->
<g id="node24" class="node"><title>33</title>
<ellipse fill="none" stroke="black" cx="237.625" cy="-19" rx="26.1448" ry="18"/>
<text text-anchor="start" x="225.625" y="-16.2333" font-family="Times Roman,serif" font-size="14.00">H</text>
<text text-anchor="start" x="236.625" y="-15.7333" font-family="Times Roman,serif" font-size="9.00">10</text>
</g>
<!-- 28&#45;&#45;33 -->
<g id="edge66" class="edge"><title>28&#45;&#45;33</title>
<path fill="none" stroke="black" stroke-width="2" d="M252.133,-64.1314C249.391,-55.5994 246.094,-45.3441 243.337,-36.7668"/>
</g>
<!-- 57 -->
<g id="node26" class="node"><title>57</title>
<ellipse fill="none" stroke="black" cx="951.184" cy="-63.7142" rx="74.0934" ry="18"/>
<text text-anchor="start" x="902.684" y="-60.9476" font-family="Times Roman,serif" font-size="14.00">{Ribo&#45;ADP}</text>
<text text-anchor="start" x="986.684" y="-60.4476" font-family="Times Roman,serif" font-size="9.00">11</text>
</g>
<!-- 67 -->
<g id="node27" class="node"><title>67</title>
<ellipse fill="none" stroke="black" cx="1436.47" cy="-317.18" rx="26.1448" ry="18"/>
<text text-anchor="start" x="1424.47" y="-314.413" font-family="Times Roman,serif" font-size="14.00">H</text>
<text text-anchor="start" x="1435.47" y="-313.913" font-family="Times Roman,serif" font-size="9.00">21</text>
</g>
<!-- 53 -->
<g id="node28" class="node"><title>53</title>
<ellipse fill="none" stroke="black" cx="1191.32" cy="-40.412" rx="61.0946" ry="18"/>
<text text-anchor="start" x="1152.82" y="-37.6453" font-family="Times Roman,serif" font-size="14.00">{CONH2}</text>
<text text-anchor="start" x="1222.82" y="-37.1453" font-family="Times Roman,serif" font-size="9.00">7</text>
</g>
<!-- 63 -->
<g id="node29" class="node"><title>63</title>
<ellipse fill="none" stroke="black" cx="1446.89" cy="-248.79" rx="25.9977" ry="18"/>
<text text-anchor="start" x="1435.39" y="-246.023" font-family="Times Roman,serif" font-size="14.00">C</text>
<text text-anchor="start" x="1445.39" y="-245.523" font-family="Times Roman,serif" font-size="9.00">17</text>
</g>
<!-- 63&#45;&#45;67 -->
<g id="edge22" class="edge"><title>63&#45;&#45;67</title>
<path fill="none" stroke="black" stroke-width="2" d="M1444.15,-266.759C1442.64,-276.732 1440.75,-289.102 1439.23,-299.094"/>
</g>
<!-- 64 -->
<g id="node33" class="node"><title>64</title>
<ellipse fill="none" stroke="black" cx="1491.4" cy="-294.95" rx="26.1448" ry="18"/>
<text text-anchor="start" x="1479.4" y="-292.183" font-family="Times Roman,serif" font-size="14.00">H</text>
<text text-anchor="start" x="1490.4" y="-291.683" font-family="Times Roman,serif" font-size="9.00">18</text>
</g>
<!-- 63&#45;&#45;64 -->
<g id="edge84" class="edge"><title>63&#45;&#45;64</title>
<path fill="none" stroke="black" stroke-width="2" d="M1461.47,-263.905C1466.44,-269.058 1471.99,-274.815 1476.95,-279.959"/>
</g>
<!-- 66 -->
<g id="node41" class="node"><title>66</title>
<ellipse fill="none" stroke="black" cx="1510.62" cy="-235.1" rx="26.1448" ry="18"/>
<text text-anchor="start" x="1498.62" y="-232.333" font-family="Times Roman,serif" font-size="14.00">H</text>
<text text-anchor="start" x="1509.62" y="-231.833" font-family="Times Roman,serif" font-size="9.00">20</text>
</g>
<!-- 63&#45;&#45;66 -->
<g id="edge4" class="edge"><title>63&#45;&#45;66</title>
<path fill="none" stroke="black" stroke-width="2" d="M1472.08,-243.379C1476.53,-242.423 1481.17,-241.427 1485.62,-240.471"/>
</g>
<!-- 48 -->
<g id="node30" class="node"><title>48</title>
<ellipse fill="none" stroke="green" cx="1136.58" cy="-207.07" rx="22.098" ry="18"/>
<text text-anchor="start" x="1128.08" y="-204.303" font-family="Times Roman,serif" font-size="14.00" fill="green">C</text>
<text text-anchor="start" x="1138.08" y="-203.803" font-family="Times Roman,serif" font-size="9.00" fill="green">2</text>
</g>
<!-- 49 -->
<g id="node38" class="node"><title>49</title>
<ellipse fill="none" stroke="green" cx="1197" cy="-167.35" rx="22.098" ry="18"/>
<text text-anchor="start" x="1188.5" y="-164.583" font-family="Times Roman,serif" font-size="14.00" fill="green">C</text>
<text text-anchor="start" x="1198.5" y="-164.083" font-family="Times Roman,serif" font-size="9.00" fill="green">3</text>
</g>
<!-- 48&#45;&#45;49 -->
<g id="edge16" class="edge"><title>48&#45;&#45;49</title>
<path fill="none" stroke="green" stroke-width="2" d="M1153.73,-195.794C1161.83,-190.473 1171.47,-184.134 1179.6,-178.792"/>
</g>
<!-- 54 -->
<g id="node44" class="node"><title>54</title>
<ellipse fill="none" stroke="black" cx="1123.37" cy="-273.99" rx="22.2425" ry="18"/>
<text text-anchor="start" x="1114.37" y="-271.223" font-family="Times Roman,serif" font-size="14.00">H</text>
<text text-anchor="start" x="1125.37" y="-270.723" font-family="Times Roman,serif" font-size="9.00">8</text>
</g>
<!-- 48&#45;&#45;54 -->
<g id="edge80" class="edge"><title>48&#45;&#45;54</title>
<path fill="none" stroke="black" stroke-width="2" d="M1133.04,-225.003C1131.15,-234.605 1128.82,-246.398 1126.92,-256.007"/>
</g>
<!-- 68 -->
<g id="node31" class="node"><title>68</title>
<ellipse fill="none" stroke="green" cx="1379.63" cy="-246.55" rx="27.0785" ry="18"/>
<text text-anchor="start" x="1365.13" y="-244.717" font-family="Times Roman,serif" font-size="10.00" fill="green">H+</text>
<text text-anchor="start" x="1381.13" y="-244.617" font-family="Times Roman,serif" font-size="9.00" fill="green">22</text>
</g>
<!-- 47 -->
<g id="node32" class="node"><title>47</title>
<ellipse fill="none" stroke="green" cx="1071.77" cy="-186.74" rx="22.098" ry="18"/>
<text text-anchor="start" x="1063.27" y="-183.973" font-family="Times Roman,serif" font-size="14.00" fill="green">C</text>
<text text-anchor="start" x="1073.27" y="-183.473" font-family="Times Roman,serif" font-size="9.00" fill="green">1</text>
</g>
<!-- 47&#45;&#45;48 -->
<g id="edge24" class="edge"><title>47&#45;&#45;48</title>
<path fill="none" stroke="green" stroke-width="2" d="M1088.67,-198.523C1096.53,-201.731 1105.98,-204.738 1114.4,-206.728"/>
</g>
<!-- 47&#45;&#45;48 -->
<g id="edge26" class="edge"><title>47&#45;&#45;48</title>
<path fill="none" stroke="green" stroke-width="2" d="M1093.81,-187.049C1102.32,-189.05 1111.9,-192.099 1119.84,-195.348"/>
</g>
<!-- 52 -->
<g id="node37" class="node"><title>52</title>
<ellipse fill="none" stroke="black" cx="1021.56" cy="-228.62" rx="22.2425" ry="18"/>
<text text-anchor="start" x="1012.56" y="-225.853" font-family="Times Roman,serif" font-size="14.00">H</text>
<text text-anchor="start" x="1023.56" y="-225.353" font-family="Times Roman,serif" font-size="9.00">6</text>
</g>
<!-- 47&#45;&#45;52 -->
<g id="edge96" class="edge"><title>47&#45;&#45;52</title>
<path fill="none" stroke="black" stroke-width="2" d="M1056.16,-199.762C1050.06,-204.852 1043.08,-210.675 1036.99,-215.75"/>
</g>
<!-- 46 -->
<g id="node34" class="node"><title>46</title>
<ellipse fill="none" stroke="green" cx="1048.44" cy="-122.33" rx="22.2425" ry="18"/>
<text text-anchor="start" x="1039.44" y="-119.563" font-family="Times Roman,serif" font-size="14.00" fill="green">N</text>
<text text-anchor="start" x="1050.44" y="-119.063" font-family="Times Roman,serif" font-size="9.00" fill="green">0</text>
</g>
<!-- 46&#45;&#45;57 -->
<g id="edge64" class="edge"><title>46&#45;&#45;57</title>
<path fill="none" stroke="black" stroke-width="2" d="M1030.6,-111.579C1016.24,-102.92 995.776,-90.589 979.221,-80.6118"/>
</g>
<!-- 46&#45;&#45;47 -->
<g id="edge86" class="edge"><title>46&#45;&#45;47</title>
<path fill="none" stroke="green" stroke-width="2" d="M1054.69,-139.591C1058.04,-148.832 1062.15,-160.183 1065.5,-169.432"/>
</g>
<!-- 51 -->
<g id="node48" class="node"><title>51</title>
<ellipse fill="none" stroke="green" cx="1104.42" cy="-81.557" rx="22.098" ry="18"/>
<text text-anchor="start" x="1095.92" y="-78.7903" font-family="Times Roman,serif" font-size="14.00" fill="green">C</text>
<text text-anchor="start" x="1105.92" y="-78.2903" font-family="Times Roman,serif" font-size="9.00" fill="green">5</text>
</g>
<!-- 46&#45;&#45;51 -->
<g id="edge46" class="edge"><title>46&#45;&#45;51</title>
<path fill="none" stroke="green" stroke-width="2" d="M1064.93,-110.317C1072.16,-105.055 1080.62,-98.8928 1087.85,-93.6247"/>
</g>
<!-- 62 -->
<g id="node35" class="node"><title>62</title>
<ellipse fill="none" stroke="black" cx="1331.51" cy="-178.59" rx="26.8013" ry="18"/>
<text text-anchor="start" x="1319.01" y="-175.823" font-family="Times Roman,serif" font-size="14.00" fill="green">O</text>
<text text-anchor="start" x="1331.01" y="-175.323" font-family="Times Roman,serif" font-size="9.00" fill="green">16</text>
</g>
<!-- 59 -->
<g id="node36" class="node"><title>59</title>
<ellipse fill="none" stroke="black" cx="1448.59" cy="-70.671" rx="26.8013" ry="18"/>
<text text-anchor="start" x="1436.09" y="-67.9043" font-family="Times Roman,serif" font-size="14.00">O</text>
<text text-anchor="start" x="1448.09" y="-67.4043" font-family="Times Roman,serif" font-size="9.00">13</text>
</g>
<!-- 55 -->
<g id="node39" class="node"><title>55</title>
<ellipse fill="none" stroke="black" cx="1204.68" cy="-227.53" rx="22.2425" ry="18"/>
<text text-anchor="start" x="1195.68" y="-224.763" font-family="Times Roman,serif" font-size="14.00">H</text>
<text text-anchor="start" x="1206.68" y="-224.263" font-family="Times Roman,serif" font-size="9.00">9</text>
</g>
<!-- 49&#45;&#45;55 -->
<g id="edge14" class="edge"><title>49&#45;&#45;55</title>
<path fill="none" stroke="black" stroke-width="2" d="M1199.31,-185.406C1200.28,-193.023 1201.41,-201.871 1202.38,-209.487"/>
</g>
<!-- 50 -->
<g id="node45" class="node"><title>50</title>
<ellipse fill="none" stroke="green" cx="1170.11" cy="-102.36" rx="22.098" ry="18"/>
<text text-anchor="start" x="1161.61" y="-99.5933" font-family="Times Roman,serif" font-size="14.00" fill="green">C</text>
<text text-anchor="start" x="1171.61" y="-99.0933" font-family="Times Roman,serif" font-size="9.00" fill="green">4</text>
</g>
<!-- 49&#45;&#45;50 -->
<g id="edge38" class="edge"><title>49&#45;&#45;50</title>
<path fill="none" stroke="green" stroke-width="2" d="M1189.94,-150.275C1186.02,-140.797 1181.15,-129.042 1177.22,-119.547"/>
</g>
<!-- 65 -->
<g id="node46" class="node"><title>65</title>
<ellipse fill="none" stroke="black" cx="1266.15" cy="-170.05" rx="26.1448" ry="18"/>
<text text-anchor="start" x="1254.15" y="-167.283" font-family="Times Roman,serif" font-size="14.00" fill="green">H</text>
<text text-anchor="start" x="1265.15" y="-166.783" font-family="Times Roman,serif" font-size="9.00" fill="green">19</text>
</g>
<!-- 49&#45;&#45;65 -->
<g id="edge72" class="edge"><title>49&#45;&#45;65</title>
<path fill="none" stroke="green" stroke-width="2" d="M1219.26,-168.219C1225.9,-168.478 1233.22,-168.764 1240.08,-169.032"/>
</g>
<!-- 58 -->
<g id="node40" class="node"><title>58</title>
<ellipse fill="none" stroke="black" cx="1437.7" cy="-134.59" rx="25.9977" ry="18"/>
<text text-anchor="start" x="1426.2" y="-131.823" font-family="Times Roman,serif" font-size="14.00">C</text>
<text text-anchor="start" x="1436.2" y="-131.323" font-family="Times Roman,serif" font-size="9.00">12</text>
</g>
<!-- 58&#45;&#45;59 -->
<g id="edge32" class="edge"><title>58&#45;&#45;59</title>
<path fill="none" stroke="black" stroke-width="2" d="M1446.86,-117.478C1449.21,-108.611 1451.02,-97.7876 1451.65,-88.7801"/>
</g>
<!-- 58&#45;&#45;59 -->
<g id="edge36" class="edge"><title>58&#45;&#45;59</title>
<path fill="none" stroke="black" stroke-width="2" d="M1434.65,-116.444C1435.28,-107.419 1437.1,-96.5778 1439.45,-87.7094"/>
</g>
<!-- 60 -->
<g id="node42" class="node"><title>60</title>
<ellipse fill="none" stroke="black" cx="1499.46" cy="-113.77" rx="31.1972" ry="18"/>
<text text-anchor="start" x="1483.96" y="-111.003" font-family="Times Roman,serif" font-size="14.00">O&#45;</text>
<text text-anchor="start" x="1501.96" y="-110.503" font-family="Times Roman,serif" font-size="9.00">14</text>
</g>
<!-- 58&#45;&#45;60 -->
<g id="edge52" class="edge"><title>58&#45;&#45;60</title>
<path fill="none" stroke="black" stroke-width="2" d="M1461.4,-126.6C1465.08,-125.362 1468.9,-124.075 1472.63,-122.815"/>
</g>
<!-- 61 -->
<g id="node43" class="node"><title>61</title>
<ellipse fill="none" stroke="black" cx="1400.01" cy="-192.74" rx="25.9977" ry="18"/>
<text text-anchor="start" x="1388.51" y="-189.973" font-family="Times Roman,serif" font-size="14.00" fill="green">C</text>
<text text-anchor="start" x="1398.51" y="-189.473" font-family="Times Roman,serif" font-size="9.00" fill="green">15</text>
</g>
<!-- 58&#45;&#45;61 -->
<g id="edge92" class="edge"><title>58&#45;&#45;61</title>
<path fill="none" stroke="black" stroke-width="2" d="M1427,-151.098C1421.95,-158.888 1415.94,-168.168 1410.87,-175.989"/>
</g>
<!-- 61&#45;&#45;63 -->
<g id="edge44" class="edge"><title>61&#45;&#45;63</title>
<path fill="none" stroke="black" stroke-width="2" d="M1413.07,-208.353C1419.47,-215.998 1427.15,-225.186 1433.58,-232.871"/>
</g>
<!-- 61&#45;&#45;62 -->
<g id="edge58" class="edge"><title>61&#45;&#45;62</title>
<path fill="none" stroke="black" stroke-width="2" d="M1378.87,-181.859C1372.56,-180.129 1365.55,-178.614 1358.89,-177.532"/>
</g>
<!-- 61&#45;&#45;62 -->
<g id="edge60" class="edge"><title>61&#45;&#45;62</title>
<path fill="none" stroke="green" stroke-width="2" d="M1373.96,-194.01C1367.15,-192.954 1359.88,-191.42 1353.31,-189.649"/>
</g>
<!-- 50&#45;&#45;53 -->
<g id="edge76" class="edge"><title>50&#45;&#45;53</title>
<path fill="none" stroke="black" stroke-width="2" d="M1176.13,-84.7739C1178.93,-76.6182 1182.24,-66.9291 1185.06,-58.6895"/>
</g>
<!-- 50&#45;&#45;51 -->
<g id="edge6" class="edge"><title>50&#45;&#45;51</title>
<path fill="none" stroke="green" stroke-width="2" d="M1153.32,-90.5865C1145.2,-87.2341 1135.36,-84.0683 1126.63,-81.9891"/>
</g>
<!-- 50&#45;&#45;51 -->
<g id="edge8" class="edge"><title>50&#45;&#45;51</title>
<path fill="none" stroke="green" stroke-width="2" d="M1147.79,-101.899C1139.16,-99.8361 1129.45,-96.7174 1121.41,-93.4098"/>
</g>
<!-- 56 -->
<g id="node47" class="node"><title>56</title>
<ellipse fill="none" stroke="black" cx="1084.31" cy="-19" rx="26.1448" ry="18"/>
<text text-anchor="start" x="1072.31" y="-16.2333" font-family="Times Roman,serif" font-size="14.00">H</text>
<text text-anchor="start" x="1083.31" y="-15.7333" font-family="Times Roman,serif" font-size="9.00">10</text>
</g>
<!-- 51&#45;&#45;56 -->
<g id="edge68" class="edge"><title>51&#45;&#45;56</title>
<path fill="none" stroke="black" stroke-width="2" d="M1098.82,-64.1314C1096.08,-55.5994 1092.78,-45.3441 1090.02,-36.7668"/>
</g>
</g>
</svg>
